# xmcd
#
# Track frame offsets: 
#        150
#        19149
#        33014
#        50156
#        70534
#        83587
#        98037
#        108140
#        122614
#        138837
#        155356
#        174776
#        192131
#        209778
#        225896
#        247469
#        268094
#        276055
#        297091
#        312600
#
# Disc length: 4324 seconds
#
# Revision: 0
# Processed by: cddbd v1.5.2PL0 Copyright (c) Steve Scherf et al.
# Submitted via: ExactAudioCopy v0.99pb4
#
DISCID=1010e214
DTITLE=Sue Foley - Queen Bee - The Antones Collection
DYEAR=2009
DGENRE=Blues
TTITLE0=Queen Bee
TTITLE1=Cuban Getaway
TTITLE2=Gone Blind
TTITLE3=Off The Hook
TTITLE4=Ruby Duby Du
TTITLE5=Give Me Time
TTITLE6=Truckin' Little Woman
TTITLE7=Put Your Money Where Your Mouth IS
TTITLE8=Big City Blues
TTITLE9=Howlin' For My Darlin'
TTITLE10=As Long As I Have You
TTITLE11=If You Gotta Go
TTITLE12=Give It To Me
TTITLE13=Walk In The Sun
TTITLE14=The Wind
TTITLE15=Love Sick Child
TTITLE16=Lightning Boogie
TTITLE17=Positively 4th Street
TTITLE18=I Feel So Good
TTITLE19=Guitar Rhumba
EXTD=
EXTT0=
EXTT1=
EXTT2=
EXTT3=
EXTT4=
EXTT5=
EXTT6=
EXTT7=
EXTT8=
EXTT9=
EXTT10=
EXTT11=
EXTT12=
EXTT13=
EXTT14=
EXTT15=
EXTT16=
EXTT17=
EXTT18=
EXTT19=
PLAYORDER=
